<svg width="22" height="22" viewBox="0 0 22 22" fill="none" xmlns="http://www.w3.org/2000/svg">
<g id="at-sign" clip-path="url(#clip0_5_57)">
<path id="Vector" d="M11 14.6667C13.0251 14.6667 14.6667 13.025 14.6667 11C14.6667 8.97495 13.0251 7.33333 11 7.33333C8.97497 7.33333 7.33334 8.97495 7.33334 11C7.33334 13.025 8.97497 14.6667 11 14.6667Z" stroke="black" stroke-width="1.83333" stroke-linecap="round" stroke-linejoin="round"/>
<path id="Vector_2" d="M14.6667 7.33332V11.9167C14.6667 12.646 14.9564 13.3455 15.4721 13.8612C15.9878 14.3769 16.6873 14.6667 17.4167 14.6667C18.146 14.6667 18.8455 14.3769 19.3612 13.8612C19.8769 13.3455 20.1667 12.646 20.1667 11.9167V11C20.1665 8.9311 19.4665 6.92309 18.1805 5.30248C16.8944 3.68186 15.098 2.54395 13.0832 2.07376C11.0685 1.60358 8.95393 1.82878 7.08339 2.71274C5.21285 3.59671 3.69635 5.08745 2.78047 6.94257C1.8646 8.79769 1.60321 10.9081 2.03881 12.9306C2.47441 14.9531 3.58138 16.7688 5.17973 18.0824C6.77808 19.396 8.7738 20.1303 10.8424 20.1659C12.911 20.2014 14.9308 19.5362 16.5733 18.2783" stroke="black" stroke-width="1.83333" stroke-linecap="round" stroke-linejoin="round"/>
</g>
<defs>
<clipPath id="clip0_5_57">
<rect width="22" height="22" fill="white"/>
</clipPath>
</defs>
</svg>
